<svg width="51" height="10" viewBox="0 0 51 10" fill="none" xmlns="http://www.w3.org/2000/svg">
<path d="M7.21289 0C7.70453 1.5353e-05 8.14962 0.202019 8.47266 0.526367C8.79401 0.845841 8.99495 1.28522 8.99902 1.77051V7.20703C8.99887 8.19278 8.18587 8.99219 7.19922 8.99219C6.21273 8.99199 5.39957 8.19266 5.39941 7.20703C5.39941 6.82815 4.94185 6.63846 4.67383 6.90625L3.10059 8.47754C2.39576 9.18167 1.24389 9.1719 0.539062 8.46777C-0.165781 7.76355 -0.175547 6.61243 0.529297 5.9082L2.0957 4.34375C2.37131 4.06838 2.17573 3.59668 1.78613 3.59668C0.799711 3.59643 0.000187406 2.7844 0 1.79883C0 0.813097 0.799596 0.000245206 1.78613 0L7.21289 0ZM1.80078 0.898438C1.30378 0.89847 0.901367 1.30127 0.901367 1.79785C0.901611 2.29422 1.30393 2.69626 1.80078 2.69629H2.63867C3.17005 2.69649 3.60059 3.12775 3.60059 3.65918V4.49512C3.6007 4.99162 4.00401 5.39453 4.50098 5.39453H5.33789C5.86941 5.39453 6.30073 5.82494 6.30078 6.35645V7.19238C6.30078 7.68885 6.70334 8.09159 7.2002 8.0918C7.69723 8.0918 8.10059 7.68898 8.10059 7.19238V4.49512C8.10059 3.99852 7.69723 3.5957 7.2002 3.5957H6.36328C5.83173 3.5957 5.40039 3.16436 5.40039 2.63281V1.79785C5.40039 1.30134 4.99789 0.898581 4.50098 0.898438H1.80078ZM1.80078 6.29199C1.3042 6.29208 0.901367 6.69481 0.901367 7.19141C0.901444 7.68794 1.30425 8.09073 1.80078 8.09082C2.29739 8.09082 2.70109 7.68799 2.70117 7.19141C2.70117 6.69475 2.29743 6.29199 1.80078 6.29199Z" fill="#008DC1"/>
<path d="M14.0385 7V2.50019H15.3885V2.78368C15.5384 2.65468 15.7094 2.55419 15.9014 2.48219C16.0934 2.41019 16.2959 2.37419 16.5089 2.37419C16.8089 2.37419 17.0849 2.44319 17.3369 2.58119C17.5889 2.71618 17.7929 2.89767 17.9488 3.12566C18.1078 2.89767 18.3118 2.71618 18.5608 2.58119C18.8128 2.44319 19.0873 2.37419 19.3843 2.37419C19.7083 2.37419 20.0023 2.45369 20.2663 2.61268C20.5302 2.76868 20.7402 2.97867 20.8962 3.24266C21.0552 3.50665 21.1347 3.80063 21.1347 4.12462V7H19.7848V4.50261C19.7848 4.36161 19.7503 4.23412 19.6813 4.12012C19.6123 4.00613 19.5208 3.91463 19.4068 3.84563C19.2928 3.77664 19.1653 3.74214 19.0243 3.74214C18.8833 3.74214 18.7543 3.77664 18.6373 3.84563C18.5233 3.91463 18.4318 4.00613 18.3628 4.12012C18.2938 4.23412 18.2593 4.36161 18.2593 4.50261V7H16.9094V4.50261C16.9094 4.36161 16.8749 4.23412 16.8059 4.12012C16.7399 4.00613 16.6484 3.91463 16.5314 3.84563C16.4174 3.77664 16.2899 3.74214 16.1489 3.74214C16.0109 3.74214 15.8834 3.77664 15.7664 3.84563C15.6524 3.91463 15.5609 4.00613 15.492 4.12012C15.423 4.23412 15.3885 4.36161 15.3885 4.50261V7H14.0385ZM25.1792 2.50019H26.5291V7H25.1747L25.1117 6.59502C25.0007 6.75101 24.8597 6.87701 24.6887 6.973C24.5207 7.069 24.3242 7.117 24.0992 7.117C23.7633 7.117 23.4483 7.054 23.1543 6.928C22.8633 6.80201 22.6068 6.62802 22.3848 6.40602C22.1628 6.18103 21.9888 5.92305 21.8628 5.63206C21.7398 5.33807 21.6783 5.02308 21.6783 4.6871C21.6783 4.36611 21.7368 4.06612 21.8538 3.78713C21.9708 3.50815 22.1343 3.26366 22.3443 3.05367C22.5573 2.84067 22.8018 2.67418 23.0778 2.55419C23.3568 2.43419 23.6553 2.37419 23.9733 2.37419C24.2312 2.37419 24.4652 2.42819 24.6752 2.53619C24.8882 2.64118 25.0772 2.77318 25.2422 2.93217L25.1792 2.50019ZM24.0632 5.82105C24.2492 5.82105 24.4187 5.77305 24.5717 5.67706C24.7247 5.58106 24.8462 5.45207 24.9362 5.29007C25.0262 5.12808 25.0712 4.94809 25.0712 4.75009C25.0712 4.5521 25.0262 4.37211 24.9362 4.21012C24.8462 4.04812 24.7247 3.91913 24.5717 3.82313C24.4187 3.72714 24.2492 3.67914 24.0632 3.67914C23.8773 3.67914 23.7078 3.72714 23.5548 3.82313C23.4048 3.91913 23.2848 4.04812 23.1948 4.21012C23.1078 4.37211 23.0643 4.5521 23.0643 4.75009C23.0643 4.94809 23.1093 5.12808 23.1993 5.29007C23.2893 5.45207 23.4093 5.58106 23.5593 5.67706C23.7123 5.77305 23.8803 5.82105 24.0632 5.82105ZM27.1207 7L28.7676 4.74109L27.1387 2.50019H28.8036L29.5956 3.58914L30.3965 2.50019H32.0614L30.4325 4.74109L32.0794 7H30.4145L29.5956 5.88405L28.7856 7H27.1207ZM32.7145 2.50019H34.0644V7H32.7145V2.50019ZM33.3985 2.03221C33.2035 2.03221 33.04 1.96771 32.908 1.83872C32.776 1.70972 32.71 1.54923 32.71 1.35724C32.71 1.16825 32.776 1.00925 32.908 0.880257C33.04 0.748263 33.202 0.682266 33.394 0.682266C33.5829 0.682266 33.7419 0.748263 33.8709 0.880257C34.0029 1.00925 34.0689 1.16825 34.0689 1.35724C34.0689 1.54923 34.0044 1.70972 33.8754 1.83872C33.7494 1.96771 33.5904 2.03221 33.3985 2.03221ZM36.3934 9.24991H35.0435V2.50019H36.3934V2.92317C36.5344 2.76418 36.6979 2.63518 36.8839 2.53619C37.0699 2.43419 37.2844 2.38319 37.5274 2.38319C37.8574 2.38319 38.1649 2.44469 38.4498 2.56769C38.7348 2.69068 38.9853 2.86167 39.2013 3.08066C39.4203 3.29666 39.5898 3.54715 39.7098 3.83213C39.8328 4.11712 39.8943 4.42311 39.8943 4.75009C39.8943 5.07708 39.8328 5.38457 39.7098 5.67256C39.5898 5.96054 39.4203 6.21403 39.2013 6.43302C38.9853 6.64901 38.7348 6.81851 38.4498 6.9415C38.1649 7.0645 37.8574 7.12599 37.5274 7.12599C37.2844 7.12599 37.0699 7.075 36.8839 6.973C36.6979 6.87101 36.5344 6.74201 36.3934 6.58602V9.24991ZM37.5094 3.67914C37.3264 3.67914 37.1584 3.72864 37.0054 3.82763C36.8554 3.92363 36.7354 4.05262 36.6454 4.21462C36.5554 4.37661 36.5104 4.5551 36.5104 4.75009C36.5104 4.94809 36.5554 5.12808 36.6454 5.29007C36.7354 5.45207 36.8554 5.58106 37.0054 5.67706C37.1584 5.77305 37.3264 5.82105 37.5094 5.82105C37.6954 5.82105 37.8649 5.77305 38.0179 5.67706C38.1709 5.58106 38.2924 5.45207 38.3823 5.29007C38.4723 5.12808 38.5173 4.94809 38.5173 4.75009C38.5173 4.5551 38.4723 4.37661 38.3823 4.21462C38.2924 4.05262 38.1709 3.92363 38.0179 3.82763C37.8649 3.72864 37.6954 3.67914 37.5094 3.67914ZM44.7002 4.12462V7H43.3503V4.50261C43.3503 4.36161 43.3158 4.23412 43.2468 4.12012C43.1778 4.00313 43.0863 3.91163 42.9723 3.84563C42.8583 3.77664 42.7308 3.74214 42.5898 3.74214C42.4488 3.74214 42.3198 3.77664 42.2028 3.84563C42.0888 3.91163 41.9973 4.00313 41.9283 4.12012C41.8623 4.23412 41.8293 4.36161 41.8293 4.50261V7H40.4794L40.4749 0.250283H41.8248L41.8293 2.78368C41.9793 2.65468 42.1503 2.55419 42.3423 2.48219C42.5343 2.41019 42.7368 2.37419 42.9498 2.37419C43.2738 2.37419 43.5678 2.45369 43.8318 2.61268C44.0957 2.76868 44.3057 2.97867 44.4617 3.24266C44.6207 3.50665 44.7002 3.80063 44.7002 4.12462ZM48.3692 2.50019H49.8091L47.3432 9.24991H45.9123L46.7223 7L45.1023 2.50019H46.5783L47.3972 5.15508L48.3692 2.50019Z" fill="white"/>
</svg>
